<svg xmlns="http://www.w3.org/2000/svg" width="611.999" height="387.592" viewBox="0 0 611.999 387.592">
  <g id="cargo-truck" transform="translate(0 -112.204)">
    <g id="Group_831" data-name="Group 831">
      <path id="Path_482" data-name="Path 482" d="M504.9,395.756a52.02,52.02,0,1,0,52.02,52.02A52.083,52.083,0,0,0,504.9,395.756Zm0,67.32a15.3,15.3,0,1,1,15.3-15.3A15.314,15.314,0,0,1,504.9,463.076Z" fill="#e94e4e"/>
      <path id="Path_483" data-name="Path 483" d="M499.918,179.518H410.04a12.241,12.241,0,0,0-12.24,12.24v238.68a12.241,12.241,0,0,0,12.24,12.24h12.981A12.2,12.2,0,0,0,435.23,432.3c4.8-36.806,34.162-59.633,69.676-59.633S569.778,395.5,574.582,432.3a12.194,12.194,0,0,0,12.209,10.373h12.968A12.245,12.245,0,0,0,612,430.438V311.1a12.218,12.218,0,0,0-2.852-7.852L509.3,183.906A12.245,12.245,0,0,0,499.918,179.518Zm-77.638,97.92v-61.2A12.241,12.241,0,0,1,434.52,204h53.917a12.242,12.242,0,0,1,9.4,4.406l51,61.2a12.24,12.24,0,0,1-9.406,20.074H434.52A12.236,12.236,0,0,1,422.28,277.438Z" fill="#e94e4e"/>
      <path id="Path_484" data-name="Path 484" d="M12.24,442.684H43.581A12.2,12.2,0,0,0,55.79,432.311c4.8-36.806,34.162-59.633,69.676-59.633s64.872,22.828,69.676,59.633a12.194,12.194,0,0,0,12.209,10.373H361.08a12.244,12.244,0,0,0,12.24-12.24v-306a12.245,12.245,0,0,0-12.24-12.24H12.24A12.241,12.241,0,0,0,0,124.444v306A12.24,12.24,0,0,0,12.24,442.684Z" fill="#e94e4e"/>
      <path id="Path_485" data-name="Path 485" d="M125.46,395.756a52.02,52.02,0,1,0,52.02,52.02A52.083,52.083,0,0,0,125.46,395.756Zm0,67.32a15.3,15.3,0,1,1,15.3-15.3A15.314,15.314,0,0,1,125.46,463.076Z" fill="#e94e4e"/>
    </g>
  </g>
</svg>
