<svg xmlns="http://www.w3.org/2000/svg" width="704.325" height="382.257" viewBox="0 0 704.325 382.257">
  <g id="Group_834" data-name="Group 834" transform="translate(-575.675 871)">
    <g id="cargo-truck" transform="translate(677.137 -870.549)">
      <g id="Group_831" data-name="Group 831" transform="translate(0 0)">
        <path id="Path_482" data-name="Path 482" d="M504.123,395.756A51.243,51.243,0,1,0,555.367,447,51.305,51.305,0,0,0,504.123,395.756Zm0,66.315A15.072,15.072,0,1,1,519.2,447,15.085,15.085,0,0,1,504.123,462.071Z" transform="translate(-6.761 -116.437)" fill="#40bb50"/>
        <path id="Path_483" data-name="Path 483" d="M498.394,179.518H409.857A12.058,12.058,0,0,0,397.8,191.575V426.692a12.058,12.058,0,0,0,12.057,12.057h12.787a12.017,12.017,0,0,0,12.027-10.218c4.732-36.256,33.652-58.743,68.636-58.743s63.9,22.487,68.636,58.743a12.012,12.012,0,0,0,12.027,10.218h12.774A12.062,12.062,0,0,0,608.8,426.692V309.134a12.036,12.036,0,0,0-2.809-7.735L507.64,183.841A12.063,12.063,0,0,0,498.394,179.518Zm-76.479,96.458V215.69a12.058,12.058,0,0,1,12.057-12.057h53.112a12.06,12.06,0,0,1,9.26,4.34l50.237,60.286a12.057,12.057,0,0,1-9.266,19.774H433.972A12.053,12.053,0,0,1,421.915,275.976Z" transform="translate(-5.939 -113.209)" fill="#40bb50"/>
        <path id="Path_484" data-name="Path 484" d="M12.057,437.75H42.93a12.017,12.017,0,0,0,12.027-10.218c4.732-36.257,33.652-58.743,68.636-58.743s63.9,22.487,68.636,58.743a12.012,12.012,0,0,0,12.027,10.218H355.69a12.062,12.062,0,0,0,12.057-12.057V124.261A12.062,12.062,0,0,0,355.69,112.2H12.057A12.058,12.058,0,0,0,0,124.261V425.693A12.057,12.057,0,0,0,12.057,437.75Z" transform="translate(0 -112.204)" fill="#40bb50"/>
        <path id="Path_485" data-name="Path 485" d="M124.683,395.756A51.243,51.243,0,1,0,175.927,447,51.305,51.305,0,0,0,124.683,395.756Zm0,66.315A15.072,15.072,0,1,1,139.755,447,15.085,15.085,0,0,1,124.683,462.071Z" transform="translate(-1.096 -116.437)" fill="#40bb50"/>
      </g>
    </g>
    <path id="Intersection_1" data-name="Intersection 1" d="M108.65,173.332l0-23.408L0,129.433l189.959-16.47L0,85.955,190.632,67.018,2.443,42.511l106.2-12.24v-4.1A26.191,26.191,0,0,1,134.817,0h91.256V173.332Z" transform="translate(575.675 -871)" fill="#40bb50"/>
    <path id="Path_487" data-name="Path 487" d="M1455.9-574.5l94.074,10.343L1449-553.321Z" transform="translate(-783.684 -241.377)" fill="#fff"/>
    <path id="Path_488" data-name="Path 488" d="M1455.9-574.5l94.074,10.343L1449-553.321Z" transform="translate(-792.549 -197.049)" fill="#fff"/>
    <path id="Path_489" data-name="Path 489" d="M1455.9-574.5l94.074,10.343L1449-553.321Z" transform="translate(-792.549 -150.751)" fill="#fff"/>
  </g>
</svg>
